<svg width="16" height="16" fill="none" xmlns="http://www.w3.org/2000/svg"><path d="m14.546 15.757-3.425-3.43a5.932 5.932 0 0 1-1.885 1.092 6.655 6.655 0 0 1-2.289.39c-1.939 0-3.581-.673-4.927-2.022C.673 10.438 0 8.81 0 6.905c0-1.906.673-3.533 2.02-4.882C3.366.674 5 0 6.92 0c1.903 0 3.523.674 4.86 2.023 1.338 1.349 2.007 2.976 2.007 4.882 0 .773-.126 1.52-.377 2.239a6.85 6.85 0 0 1-1.131 2.022l3.479 3.431a.707.707 0 0 1 .242.553.84.84 0 0 1-.27.607.805.805 0 0 1-.592.243.805.805 0 0 1-.592-.243ZM6.92 12.191c1.454 0 2.693-.517 3.716-1.55 1.023-1.034 1.535-2.28 1.535-3.736 0-1.457-.512-2.702-1.535-3.736C9.613 2.135 8.374 1.62 6.92 1.62c-1.472 0-2.724.516-3.756 1.55-1.032 1.034-1.548 2.28-1.548 3.736 0 1.456.516 2.702 1.548 3.735 1.032 1.034 2.284 1.551 3.756 1.551Z" fill="#242424"/></svg>