<svg width="22" height="22" viewBox="0 0 22 22" fill="none" xmlns="http://www.w3.org/2000/svg">
<path fill-rule="evenodd" clip-rule="evenodd" d="M16.6651 4.12489C15.7301 4.06989 13.8051 4.01489 10.8901 4.01489H10.5051C7.70013 4.01489 5.83016 4.06989 4.89516 4.17989C3.63016 4.28989 2.75013 4.61989 2.25513 5.05989C1.81513 5.44489 1.48514 6.15989 1.37514 7.09489C1.32014 7.69989 1.26514 8.96489 1.26514 10.8899V11.1649C1.26514 12.9799 1.32013 14.2449 1.43013 14.8499C1.59513 15.7299 1.87016 16.3899 2.42016 16.7749C2.97016 17.2149 3.90514 17.4899 5.22514 17.5999C6.16014 17.6549 8.08514 17.7099 11.0001 17.7099H11.3852C14.1902 17.7099 16.0602 17.6549 16.9952 17.5449C18.2602 17.4349 19.1402 17.1049 19.6352 16.6649C20.0752 16.2799 20.4051 15.5649 20.5151 14.6299C20.5701 14.0249 20.6251 12.7599 20.6251 10.8349V10.5599C20.6251 8.74489 20.5702 7.47989 20.4602 6.87489C20.2952 5.99489 20.0202 5.33489 19.4702 4.94989C18.9202 4.50989 17.9851 4.23489 16.6651 4.12489ZM14.5202 10.8899L8.47016 14.5199V7.25989L14.5202 10.8899Z" fill="#FDFDFF"/>
</svg>
