<svg width="16" height="16" viewBox="0 0 16 16" fill="none" xmlns="http://www.w3.org/2000/svg">
<path d="M14.546 15.7572L11.1208 12.3263C10.5822 12.7938 9.95395 13.158 9.23591 13.4187C8.51786 13.6794 7.75493 13.8098 6.94712 13.8098C5.00839 13.8098 3.36585 13.1355 2.01951 11.7869C0.673171 10.4383 0 8.81093 0 6.90489C0 4.99885 0.673171 3.37153 2.01951 2.02292C3.36585 0.674306 4.99942 0 6.9202 0C8.82303 0 10.4431 0.674306 11.7805 2.02292C13.1179 3.37153 13.7865 4.99885 13.7865 6.90489C13.7865 7.6781 13.6609 8.42433 13.4096 9.14359C13.1582 9.86285 12.7813 10.5372 12.2786 11.1665L15.7577 14.5974C15.9192 14.7413 16 14.9256 16 15.1504C16 15.3751 15.9102 15.5774 15.7307 15.7572C15.5692 15.9191 15.3717 16 15.1383 16C14.905 16 14.7075 15.9191 14.546 15.7572ZM6.9202 12.1914C8.37425 12.1914 9.61288 11.6745 10.6361 10.6405C11.6593 9.60661 12.1709 8.36139 12.1709 6.90489C12.1709 5.44839 11.6593 4.20317 10.6361 3.16924C9.61288 2.1353 8.37425 1.61833 6.9202 1.61833C5.4482 1.61833 4.1961 2.1353 3.1639 3.16924C2.13171 4.20317 1.61561 5.44839 1.61561 6.90489C1.61561 8.36139 2.13171 9.60661 3.1639 10.6405C4.1961 11.6745 5.4482 12.1914 6.9202 12.1914Z" fill="#242424"/>
</svg>
